<svg width="45" height="45" viewBox="0 0 45 45" fill="none" xmlns="http://www.w3.org/2000/svg">
<g clip-path="url(#clip0_156_287)">
<path d="M32.7812 11.2501C33.2785 11.2501 33.7554 11.4477 34.1071 11.7993C34.4587 12.1509 34.6562 12.6278 34.6562 13.1251L34.75 28.1251C34.75 28.6224 34.5525 29.0993 34.2008 29.4509C33.8492 29.8026 33.3723 30.0001 32.875 30.0001C32.3777 30.0001 31.9008 29.8026 31.5492 29.4509C31.1975 29.0993 31 28.6224 31 28.1251L31 17.7001L15.4563 33.2064C15.2819 33.3821 15.0746 33.5216 14.8461 33.6168C14.6176 33.712 14.3725 33.761 14.125 33.761C13.8775 33.761 13.6324 33.712 13.4039 33.6168C13.1754 33.5216 12.9681 33.3821 12.7938 33.2064C12.618 33.0321 12.4785 32.8247 12.3833 32.5962C12.2881 32.3677 12.2391 32.1226 12.2391 31.8751C12.2391 31.6276 12.2881 31.3825 12.3833 31.154C12.4785 30.9255 12.618 30.7182 12.7938 30.5439L28.3375 15.0001L17.875 15.0001C17.3777 15.0001 16.9008 14.8026 16.5492 14.4509C16.1975 14.0993 16 13.6224 16 13.1251C16 12.6278 16.1975 12.1509 16.5492 11.7993C16.9008 11.4477 17.3777 11.2501 17.875 11.2501L32.7812 11.2501Z" fill="#222222"/>
</g>
<defs>
<clipPath id="clip0_156_287">
<rect width="45" height="45" fill="white" transform="matrix(-4.37114e-08 -1 -1 4.37114e-08 45 45)"/>
</clipPath>
</defs>
</svg>
