<svg width="42" height="42" viewBox="0 0 42 42" fill="none" xmlns="http://www.w3.org/2000/svg">
<g clip-path="url(#clip0_165_536)">
<path d="M6.0692 4.2002H35.9522C36.9812 4.2002 37.8002 5.0192 37.8002 6.0482V35.9522C37.8002 36.9602 36.9812 37.8002 35.9522 37.8002H27.3842V24.7802H31.7522L32.4032 19.7192H27.3842V16.4852C27.3842 15.0152 27.8042 14.0072 29.9042 14.0072H32.5922V9.4712C32.1302 9.4082 30.5342 9.2822 28.6862 9.2822C24.8012 9.2822 22.1552 11.6342 22.1552 15.9812V19.7192H17.7662V24.7802H22.1552V37.8002H6.0692C5.0402 37.8002 4.2002 36.9602 4.2002 35.9522V6.0482C4.2002 5.0192 5.0402 4.2002 6.0692 4.2002Z" fill="black"/>
</g>
<defs>
<clipPath id="clip0_165_536">
<rect width="42" height="42" fill="white"/>
</clipPath>
</defs>
</svg>
