<svg width="24" height="24" viewBox="0 0 24 24" fill="none" xmlns="http://www.w3.org/2000/svg">
<path d="M17.3006 5.7002C16.7006 5.7002 16.1006 6.2002 16.1006 6.9002C16.1006 7.6002 16.6006 8.1002 17.3006 8.1002C18.0006 8.1002 18.5006 7.6002 18.5006 6.9002C18.4006 6.2002 17.9006 5.7002 17.3006 5.7002Z" fill="#222222"/>
<path d="M11.9996 7.2002C9.29961 7.2002 7.09961 9.4002 7.09961 12.1002C7.09961 14.8002 9.29961 17.0002 11.9996 17.0002C14.6996 17.0002 16.8996 14.8002 16.8996 12.1002C16.9996 9.4002 14.7996 7.2002 11.9996 7.2002ZM11.9996 15.3002C10.2996 15.3002 8.79961 13.9002 8.79961 12.1002C8.79961 10.4002 10.1996 8.90019 11.9996 8.90019C13.6996 8.90019 15.1996 10.3002 15.1996 12.1002C15.1996 13.9002 13.7996 15.3002 11.9996 15.3002Z" fill="#222222"/>
<path d="M16 2H8C4.7 2 2 4.7 2 8V16C2 19.3 4.7 22 8 22H16C19.3 22 22 19.3 22 16V8C22 4.7 19.3 2 16 2ZM20.1 16C20.1 18.3 18.2 20.1 16 20.1H8C5.7 20.1 3.9 18.2 3.9 16V8C3.9 5.7 5.8 3.9 8 3.9H16C18.3 3.9 20.1 5.8 20.1 8V16Z" fill="#222222"/>
</svg>
