<svg width="41" height="41" viewBox="0 0 41 41" fill="none" xmlns="http://www.w3.org/2000/svg">
<path d="M7.6875 2.5625H33.3125C36.1312 2.5625 38.4375 4.86875 38.4375 7.6875V33.3125C38.4375 36.1312 36.1312 38.4375 33.3125 38.4375H7.6875C4.86875 38.4375 2.5625 36.1312 2.5625 33.3125V7.6875C2.5625 4.86875 4.86875 2.5625 7.6875 2.5625Z" fill="black"/>
<path d="M27.2904 12.4282C26.5217 12.4282 25.7529 13.0688 25.7529 13.9657C25.7529 14.8626 26.3936 15.5032 27.2904 15.5032C28.1873 15.5032 28.8279 14.8626 28.8279 13.9657C28.6998 13.0688 28.0592 12.4282 27.2904 12.4282Z" fill="white"/>
<path d="M20.4998 14.3501C17.0404 14.3501 14.2217 17.1688 14.2217 20.6282C14.2217 24.0876 17.0404 26.9063 20.4998 26.9063C23.9592 26.9063 26.7779 24.0876 26.7779 20.6282C26.9061 17.1688 24.0873 14.3501 20.4998 14.3501ZM20.4998 24.7282C18.3217 24.7282 16.3998 22.9345 16.3998 20.6282C16.3998 18.4501 18.1936 16.5282 20.4998 16.5282C22.6779 16.5282 24.5998 18.322 24.5998 20.6282C24.5998 22.9345 22.8061 24.7282 20.4998 24.7282Z" fill="white"/>
<path d="M25.625 7.6875H15.375C11.1469 7.6875 7.6875 11.1469 7.6875 15.375V25.625C7.6875 29.8531 11.1469 33.3125 15.375 33.3125H25.625C29.8531 33.3125 33.3125 29.8531 33.3125 25.625V15.375C33.3125 11.1469 29.8531 7.6875 25.625 7.6875ZM30.8781 25.625C30.8781 28.5719 28.4438 30.8781 25.625 30.8781H15.375C12.4281 30.8781 10.1219 28.4438 10.1219 25.625V15.375C10.1219 12.4281 12.5563 10.1219 15.375 10.1219H25.625C28.5719 10.1219 30.8781 12.5563 30.8781 15.375V25.625Z" fill="white"/>
</svg>
