<svg width="1006" height="1006" viewBox="0 0 1006 1006" fill="none" xmlns="http://www.w3.org/2000/svg">
<g clip-path="url(#clip0_284_40)">
<path d="M503 1006C780.799 1006 1006 780.799 1006 503C1006 225.201 780.799 0 503 0C225.201 0 0 225.201 0 503C0 780.799 225.201 1006 503 1006Z" fill="#ECF2FC"/>
<path d="M503.5 772.898C652.836 772.898 773.898 651.837 773.898 502.5C773.898 353.163 652.836 232.102 503.5 232.102C354.163 232.102 233.102 353.163 233.102 502.5C233.102 651.837 354.163 772.898 503.5 772.898Z" fill="white" stroke="#74E2E5" stroke-width="0.203688"/>
<path d="M503 722C623.95 722 722 623.95 722 503C722 382.05 623.95 284 503 284C382.05 284 284 382.05 284 503C284 623.95 382.05 722 503 722Z" fill="#FF9F40"/>
<path d="M503 669C594.679 669 669 594.679 669 503C669 411.321 594.679 337 503 337C411.321 337 337 411.321 337 503C337 594.679 411.321 669 503 669Z" fill="#ACF85B"/>
<path d="M503 616.898C565.904 616.898 616.898 565.904 616.898 503C616.898 440.096 565.904 389.102 503 389.102C440.095 389.102 389.102 440.096 389.102 503C389.102 565.904 440.095 616.898 503 616.898Z" fill="white" stroke="#74E2E5" stroke-width="0.203688"/>
</g>
<defs>
<clipPath id="clip0_284_40">
<rect width="1006" height="1006" fill="white"/>
</clipPath>
</defs>
</svg>
