<svg width="35" height="35" viewBox="0 0 35 35" fill="none" xmlns="http://www.w3.org/2000/svg">
<g clip-path="url(#clip0_165_533)">
<path d="M27.097 0H7.90303C3.53831 0 0 3.55469 0 7.93962V27.0604C0 31.4453 3.53831 35 7.90303 35H27.097C31.4617 35 35 31.4453 35 27.0604V7.93962C35 3.55469 31.4617 0 27.097 0Z" fill="black"/>
<path d="M22.1303 10.188H24.5994L19.2052 16.3826L25.551 24.8112H20.5819L16.6902 19.6996L12.2366 24.8112H9.76611L15.5356 18.186L9.44824 10.188H14.5431L18.0608 14.8607L22.1303 10.188ZM21.2635 23.3264H22.632L13.8 11.5952H12.3316L21.2635 23.3264Z" fill="white"/>
</g>
<defs>
<clipPath id="clip0_165_533">
<rect width="35" height="35" fill="white"/>
</clipPath>
</defs>
</svg>
