<svg width="24" height="24" viewBox="0 0 24 24" fill="none" xmlns="http://www.w3.org/2000/svg">
<path d="M12 19.6049C11.4107 19.6049 6.1998 19.5938 4.71213 19.1948C4.16027 19.0466 3.65708 18.7559 3.25304 18.3519C2.849 17.9478 2.55832 17.4447 2.41017 16.8928C2.00403 15.3795 2 12.4278 2 12.303C2 12.1782 2.00453 9.22647 2.41017 7.71313C2.55875 7.16135 2.84963 6.65826 3.25369 6.2542C3.65776 5.85013 4.16085 5.55925 4.71263 5.41067C6.1998 5.01158 11.4107 5 12 5C12.5893 5 17.8002 5.01107 19.2884 5.41017C19.8401 5.55865 20.3431 5.84943 20.7471 6.25342C21.1511 6.65741 21.4419 7.16043 21.5903 7.71213V7.71263C21.9955 9.22597 22 12.1771 22 12.302C22 12.4268 21.9955 15.3784 21.5903 16.8918C21.4419 17.4437 21.151 17.9469 20.7468 18.351C20.3426 18.7551 19.8393 19.0459 19.2874 19.1942C17.8002 19.5933 12.5893 19.6049 12 19.6049Z" fill="#222222"/>
<path d="M10.4359 15.3113C10.3024 15.3113 10.1744 15.2582 10.08 15.1638C9.98564 15.0695 9.93262 14.9415 9.93262 14.808V9.79892C9.93231 9.71046 9.95538 9.62349 9.99948 9.5468C10.0436 9.47012 10.1071 9.40644 10.1838 9.36221C10.2604 9.31798 10.3473 9.29477 10.4358 9.29492C10.5242 9.29508 10.6111 9.31859 10.6875 9.36309L15.0252 11.8679C15.1017 11.912 15.1652 11.9756 15.2094 12.0521C15.2536 12.1286 15.2768 12.2154 15.2768 12.3037C15.2768 12.392 15.2536 12.4788 15.2094 12.5553C15.1652 12.6318 15.1017 12.6954 15.0252 12.7395L10.6875 15.2443C10.6109 15.2881 10.5242 15.3111 10.4359 15.3113Z" fill="white"/>
</svg>
