<svg width="50" height="50" viewBox="0 0 50 50" fill="none" xmlns="http://www.w3.org/2000/svg">
<path d="M25.0036 40.1095C23.7838 40.1095 12.9984 40.0866 9.91921 39.2606C8.77698 38.9539 7.73547 38.3523 6.8992 37.516C6.06292 36.6797 5.46127 35.6382 5.15462 34.496C4.314 31.3637 4.30566 25.2543 4.30566 24.996C4.30566 24.7377 4.31504 18.6283 5.15462 15.496C5.46216 14.3539 6.06422 13.3126 6.90055 12.4763C7.73689 11.64 8.77818 11.0379 9.92025 10.7304C12.9984 9.90433 23.7838 9.88037 25.0036 9.88037C26.2234 9.88037 37.0088 9.90329 40.089 10.7293C41.2309 11.0367 42.2721 11.6385 43.1082 12.4747C43.9444 13.3109 44.5463 14.352 44.8536 15.4939V15.495C45.6921 18.6272 45.7015 24.7356 45.7015 24.9939C45.7015 25.2522 45.6921 31.3616 44.8536 34.4939C44.5463 35.6363 43.9443 36.6779 43.1077 37.5143C42.2711 38.3507 41.2294 38.9525 40.0869 39.2595C37.0088 40.0856 26.2234 40.1095 25.0036 40.1095Z" fill="black"/>
<path d="M21.7663 31.2221C21.49 31.2221 21.2251 31.1123 21.0297 30.917C20.8344 30.7216 20.7246 30.4567 20.7246 30.1804V19.8127C20.724 19.6296 20.7717 19.4496 20.863 19.2909C20.9543 19.1321 21.0858 19.0003 21.2444 18.9088C21.403 18.8173 21.5829 18.7692 21.766 18.7695C21.9491 18.7699 22.1289 18.8185 22.2871 18.9106L31.2652 24.095C31.4236 24.1864 31.5551 24.3179 31.6465 24.4763C31.7379 24.6346 31.786 24.8142 31.786 24.9971C31.786 25.1799 31.7379 25.3595 31.6465 25.5179C31.5551 25.6762 31.4236 25.8077 31.2652 25.8992L22.2871 31.0835C22.1284 31.1741 21.949 31.2218 21.7663 31.2221Z" fill="white"/>
</svg>
